<svg xmlns="http://www.w3.org/2000/svg" width="36.905" height="28.585"><g style="display:inline"><path d="M51.57 65.957c-.084-.221-.116-6.666-.07-14.322l.083-13.92h36.8v28.48l-18.329.082c-14.493.066-18.361-.002-18.483-.32zm36.333-14.002v-13.76h-35.84v27.52h35.84zm-33.6 0v-11.2h30.72v22.4h-30.72Zm12.078 9.411c3.568-1.123 3.556-.714.123-4.073-3.909-3.825-3.973-3.821-8.287.507-4.994 5.011-1.404 6.58 8.164 3.566zm18.002-.771c0-1.882-.018-1.92-.88-1.919-2.981.005-14.013 2.133-17.2 3.318-1.182.44-.542.477 8.4.498l9.68.023zm-3.6-2.287c5.21-.576 5.162-1.099-.636-6.909-5.622-5.634-5.11-5.63-10.632-.096l-4.14 4.149 2.4 2.368 2.398 2.368 3.505-.741c1.928-.408 5.125-.92 7.105-1.139zm-18.276-4.433c.69 0 1.549.207 1.91.46.618.432.895.22 4.775-3.67 5.728-5.74 5.348-5.744 11.271.12l3.92 3.88v-13.27h-29.44v18.68l3.155-3.1c2.907-2.856 3.254-3.1 4.409-3.1zm-3.348-4.9c-1.478-1.573-.372-4.06 1.805-4.06 1.366 0 2.299.974 2.299 2.4 0 2.222-2.591 3.27-4.104 1.66zm2.845-.231c.71-.38.86-2.18.235-2.805-1.019-1.019-3.136-.09-3.136 1.376 0 1.459 1.481 2.188 2.901 1.429z" style="display:inline;fill:#000;fill-opacity:1;fill-rule:nonzero;stroke-width:.32" transform="translate(-51.479 -37.715)"/></g></svg>