<svg xmlns="http://www.w3.org/2000/svg" xmlns:xlink="http://www.w3.org/1999/xlink"><symbol fill="none" id="sprite-guarantee" viewBox="0 0 94 100"><title>guarantee</title><path d="M50.268 75.76l5.278-3.185V100H38.454V71.106l2.01-1.066 9.804 5.72z" fill="url(#paint0_linear_22_615)"/><path d="M35.186 100h-17.09V81.91l17.09-9.069V100z" fill="url(#paint1_linear_22_615)"/><path d="M14.827 83.644V100H.426v-8.715l14.401-7.641z" fill="url(#paint2_linear_22_615)"/><path d="M75.904 100h-17.09V70.6l17.09-10.318V100z" fill="url(#paint3_linear_22_615)"/><path d="M93.574 100H79.173V58.308l14.401-8.695V100z" fill="url(#paint4_linear_22_615)"/><path d="M52.405 15.14A7.586 7.586 0 1153.81.031a7.586 7.586 0 01-1.405 15.107z" fill="url(#paint5_linear_22_615)"/><path d="M26.688 60.722L30.31 48.8c.149.258.299.517.47.763a9.796 9.796 0 007.157 4.173l1.333.091-3.799 9.211a16.065 16.065 0 01-2.957 3.593l-9.877 8.968a3.422 3.422 0 01-4.755-.26l-.09-.092a3.427 3.427 0 01.097-4.753l8.799-9.772z" fill="url(#paint6_linear_22_615)"/><path d="M51.82 24.09l-2.528 1.014-.75-2.764 1.56-2.657 2.98 2.253-1.263 2.153z" fill="url(#paint7_linear_22_615)"/><path d="M52.86 68.477l-.134-.032a3.48 3.48 0 01-2.589-4.012l2.176-11.672-14.347-.996a6.818 6.818 0 01-5.123-2.908 6.823 6.823 0 01-.94-5.818l.54-1.828 4.485-16.34-7.69.415-6.147 5.922c.296.362.445.836.325 1.328l-.503 2.035 3.575.882a1.573 1.573 0 011.152 1.907l-2.406 9.766a1.581 1.581 0 01-1.909 1.157L8.158 44.541a1.58 1.58 0 01-1.154-1.914l2.408-9.763a1.582 1.582 0 011.909-1.157l3.575.882.5-2.031a1.543 1.543 0 011.866-1.127l.374.093c.084-.347.238-.682.467-.982l6.014-7.885a4.594 4.594 0 012.61-1.688l9.89-3.54a11.066 11.066 0 019.959 1.293l.856 12.17 7.878-5.516 5.497 4.218 8.898-3.21a2.828 2.828 0 013.69 1.345l.093.188a2.832 2.832 0 01-1.326 3.795l-10.724 5.12a4.848 4.848 0 01-4.216-.017l-5.718-3.802L47.58 42.26l9.49.832a5.383 5.383 0 013.957 2.32 5.382 5.382 0 01.72 4.53L57.03 66.074a3.477 3.477 0 01-4.17 2.402zM16.907 30.872l-.072.041-.502 2.033 5.14 1.269.488-1.971c-.955.782-2.318.841-3.309.075l-.057-.043a2.647 2.647 0 01-.872-1.202l-.816-.202zm26.349 7.815a.94.94 0 00.847 1.023.945.945 0 001.023-.85.938.938 0 00-.85-1.02.936.936 0 00-1.02.847zm2.502-5.99a.938.938 0 10-.172 1.87.938.938 0 00.172-1.87z" fill="url(#paint8_linear_22_615)"/><defs><linearGradient id="paint0_linear_22_615" x1="47" y1="70.04" x2="47" y2="100" gradientUnits="userSpaceOnUse"><stop stop-color="#D9D1BF"/><stop offset="1" stop-color="#A69B86"/></linearGradient><linearGradient id="paint1_linear_22_615" x1="26.641" y1="72.841" x2="26.641" y2="100" gradientUnits="userSpaceOnUse"><stop stop-color="#D9D1BF"/><stop offset="1" stop-color="#A69B86"/></linearGradient><linearGradient id="paint2_linear_22_615" x1="7.627" y1="83.644" x2="7.627" y2="100" gradientUnits="userSpaceOnUse"><stop stop-color="#D9D1BF"/><stop offset="1" stop-color="#A69B86"/></linearGradient><linearGradient id="paint3_linear_22_615" x1="67.359" y1="60.282" x2="67.359" y2="100" gradientUnits="userSpaceOnUse"><stop stop-color="#D9D1BF"/><stop offset="1" stop-color="#A69B86"/></linearGradient><linearGradient id="paint4_linear_22_615" x1="86.373" y1="49.613" x2="86.373" y2="100" gradientUnits="userSpaceOnUse"><stop stop-color="#D9D1BF"/><stop offset="1" stop-color="#A69B86"/></linearGradient><linearGradient id="paint5_linear_22_615" x1="53.106" y1="0" x2="53.106" y2="15.172" gradientUnits="userSpaceOnUse"><stop stop-color="#D9D1BF"/><stop offset="1" stop-color="#A69B86"/></linearGradient><linearGradient id="paint6_linear_22_615" x1="28.076" y1="48.8" x2="28.076" y2="76.438" gradientUnits="userSpaceOnUse"><stop stop-color="#D9D1BF"/><stop offset="1" stop-color="#A69B86"/></linearGradient><linearGradient id="paint7_linear_22_615" x1="50.812" y1="19.683" x2="50.812" y2="25.104" gradientUnits="userSpaceOnUse"><stop stop-color="#D9D1BF"/><stop offset="1" stop-color="#A69B86"/></linearGradient><linearGradient id="paint8_linear_22_615" x1="40.366" y1="14.788" x2="40.366" y2="68.579" gradientUnits="userSpaceOnUse"><stop stop-color="#D9D1BF"/><stop offset="1" stop-color="#A69B86"/></linearGradient></defs></symbol><symbol class="ldi-47ibm8" preserveAspectRatio="xMidYMid" style="width:525px;webkit-user-select:none;webkit-transform-origin:262.5px 262.5px;webkit-perspective-origin:262.5px 262.5px;webkit-logical-width:525px;webkit-logical-height:525px;user-select:none;transform-origin:262.5px 262.5px;r:0;perspective-origin:262.5px 262.5px;overflow-y:hidden;overflow-x:hidden;inline-size:525px;height:525px;d:none;block-size:525px;background:0 0/auto padding-box border-box" pointer-events="all" overflow="hidden" display="block" id="sprite-ok" viewBox="0 0 100 100"><title>ok</title><svg version="1.1" id="圖層_1" xmlns="http://www.w3.org/2000/svg" x="0" y="0" viewBox="0 0 100 100" xml:space="preserve" style="x:0;webkit-user-select:none;webkit-transform-origin:50px 50px;webkit-perspective-origin:0 0;user-select:none;transform-origin:50px 50px;r:0;perspective-origin:0 0;overflow-y:hidden;overflow-x:hidden" pointer-events="all" overflow="hidden" display="block"><g style="x:0;webkit-user-select:none;webkit-transform-origin:50px 50px;webkit-perspective-origin:0 0;user-select:none;transform-origin:50px 50px;r:0;perspective-origin:0 0"><g style="x:0;webkit-user-select:none;webkit-transform-origin:50px 50px;webkit-transform:matrix(.7,0,0,.7,0,0);webkit-perspective-origin:0 0;user-select:none;transform-origin:50px 50px;r:0;perspective-origin:0 0"><g style="x:0;webkit-user-select:none;webkit-transform-origin:50px 50px;webkit-perspective-origin:0 0;user-select:none;transform-origin:50px 50px;r:0;perspective-origin:0 0"><g style="webkit-user-select:none;webkit-perspective-origin:0 0;user-select:none;perspective-origin:0 0" transform="scale(.7)"><style/><g style="y:0;x:0;webkit-user-select:none;webkit-transform-origin:50px 50px;webkit-perspective-origin:0 0;webkit-animation-duration:2.2s;webkit-animation-delay:.169231s;webkit-animation:2.2s ease .169231s 1 normal none running none;user-select:none;transform-origin:50px 50px;r:0;perspective-origin:0 0;d:none"><circle cx="50" cy="50" r="40" stroke="#3c3" style="webkit-user-select:none;webkit-perspective-origin:0 0;user-select:none;r:40px;perspective-origin:0 0;cy:50px;cx:50px" stroke-width="8" stroke-miterlimit="10" fill="none"/></g><g style="x:0;webkit-user-select:none;webkit-transform-origin:50px 50px;webkit-perspective-origin:0 0;user-select:none;transform-origin:50px 50px;r:0;perspective-origin:0 0"><g style="webkit-user-select:none;webkit-perspective-origin:0 0;user-select:none;perspective-origin:0 0"><g style="y:0;x:0;webkit-user-select:none;webkit-transform-origin:50px 50px;webkit-perspective-origin:0 0;webkit-animation-duration:2.2s;webkit-animation-delay:.338462s;webkit-animation:2.2s ease .338462s 1 normal none running none;user-select:none;transform-origin:50px 50px;r:0;perspective-origin:0 0;d:none" class="ld"><path fill="#3c3" style="webkit-user-select:none;webkit-perspective-origin:0 0;user-select:none;r:0;perspective-origin:0 0" d="M43.7 69.4L25 47.7l3.9-3.9 14.8 12.6 28.6-25.8 2.7 2.7z"/></g></g></g></g></g></g></g><style>@keyframes ldt-bounce-in{0%{-webkit-transform:scale(0);transform:scale(0)}5%{-webkit-transform:scale(.0846);transform:scale(.0846)}6%{-webkit-transform:scale(.191);transform:scale(.191)}7%{-webkit-transform:scale(.3255);transform:scale(.3255)}8%{-webkit-transform:scale(.4804);transform:scale(.4804)}9%{-webkit-transform:scale(.646);transform:scale(.646)}10%{-webkit-transform:scale(.8116);transform:scale(.8116)}11%{-webkit-transform:scale(.9665);transform:scale(.9665)}12%{-webkit-transform:scale(1.1);transform:scale(1.1)}13%{-webkit-transform:scale(1.2069);transform:scale(1.2069)}14%{-webkit-transform:scale(1.2796);transform:scale(1.2796)}19%{-webkit-transform:scale(1.1558);transform:scale(1.1558)}20%{-webkit-transform:scale(1.07);transform:scale(1.07)}21%{-webkit-transform:scale(.9823);transform:scale(.9823)}22%{-webkit-transform:scale(.901);transform:scale(.901)}23%{-webkit-transform:scale(.8328);transform:scale(.8328)}25%{-webkit-transform:scale(.7551);transform:scale(.7551)}29%{-webkit-transform:scale(.8516);transform:scale(.8516)}31%{-webkit-transform:scale(.973);transform:scale(.973)}33%{-webkit-transform:scale(1.0857);transform:scale(1.0857)}35%{-webkit-transform:scale(1.1538);transform:scale(1.1538)}40%{-webkit-transform:scale(1.0771);transform:scale(1.0771)}42%{-webkit-transform:scale(.9954);transform:scale(.9954)}45%{-webkit-transform:scale(.9057);transform:scale(.9057)}52%{-webkit-transform:scale(.9908);transform:scale(.9908)}56%{-webkit-transform:scale(1.0623);transform:scale(1.0623)}64%{-webkit-transform:scale(.9845);transform:scale(.9845)}}@-webkit-keyframes ldt-bounce-in{0%{-webkit-transform:scale(0);transform:scale(0)}5%{-webkit-transform:scale(.0846);transform:scale(.0846)}6%{-webkit-transform:scale(.191);transform:scale(.191)}7%{-webkit-transform:scale(.3255);transform:scale(.3255)}8%{-webkit-transform:scale(.4804);transform:scale(.4804)}9%{-webkit-transform:scale(.646);transform:scale(.646)}10%{-webkit-transform:scale(.8116);transform:scale(.8116)}11%{-webkit-transform:scale(.9665);transform:scale(.9665)}12%{-webkit-transform:scale(1.1);transform:scale(1.1)}13%{-webkit-transform:scale(1.2069);transform:scale(1.2069)}14%{-webkit-transform:scale(1.2796);transform:scale(1.2796)}19%{-webkit-transform:scale(1.1558);transform:scale(1.1558)}20%{-webkit-transform:scale(1.07);transform:scale(1.07)}21%{-webkit-transform:scale(.9823);transform:scale(.9823)}22%{-webkit-transform:scale(.901);transform:scale(.901)}23%{-webkit-transform:scale(.8328);transform:scale(.8328)}25%{-webkit-transform:scale(.7551);transform:scale(.7551)}29%{-webkit-transform:scale(.8516);transform:scale(.8516)}31%{-webkit-transform:scale(.973);transform:scale(.973)}33%{-webkit-transform:scale(1.0857);transform:scale(1.0857)}35%{-webkit-transform:scale(1.1538);transform:scale(1.1538)}40%{-webkit-transform:scale(1.0771);transform:scale(1.0771)}42%{-webkit-transform:scale(.9954);transform:scale(.9954)}45%{-webkit-transform:scale(.9057);transform:scale(.9057)}52%{-webkit-transform:scale(.9908);transform:scale(.9908)}56%{-webkit-transform:scale(1.0623);transform:scale(1.0623)}64%{-webkit-transform:scale(.9845);transform:scale(.9845)}}</style></svg></symbol><symbol fill="none" id="sprite-safe" viewBox="0 0 96 100"><title>safe</title><path d="M84.084 0H11.916C5.754 0 .756 4.999.756 11.16v72.168c0 6.162 4.998 11.16 11.16 11.16h2.979l.506 4.716a.893.893 0 00.891.796h5.414a.89.89 0 00.885-.796l.51-4.715h49.795l.513 4.715a.89.89 0 00.885.796h5.414a.893.893 0 00.891-.796l.507-4.715h2.978c6.165 0 11.16-5 11.16-11.16V11.16C95.245 5 90.25 0 84.085 0zm5.255 33.917h-1.971v26.654h1.971v10.425h-1.971v7.352c0 4.2-3.412 7.614-7.612 7.614H16.243c-4.196 0-7.614-3.415-7.614-7.614v-63.51c0-4.2 3.418-7.617 7.614-7.617h63.514c4.199 0 7.61 3.418 7.61 7.617v8.655h1.972v10.424z" fill="url(#paint0_linear_22_626)"/><path d="M61.013 49.353a.885.885 0 00-.702-.345h-9.003a4.216 4.216 0 01-2.716 1.651l-4.321 7.495-.22.379a.893.893 0 00-.055.787.894.894 0 00.59.519s-.053.018.497.137a13.706 13.706 0 0012.573-3.732 13.791 13.791 0 003.363-5.5c.177-.564.152-.625.152-.625a.871.871 0 00-.158-.766z" fill="url(#paint1_linear_22_626)"/><path d="M79.757 10.37H16.243a4.467 4.467 0 00-4.464 4.468v63.51a4.465 4.465 0 004.464 4.465h63.514a4.462 4.462 0 004.461-4.465v-7.352H80.81V60.572h3.41V33.916h-3.41V23.493h3.41v-8.655a4.465 4.465 0 00-4.462-4.468zM47.915 65.003c-10.224 0-18.5-8.283-18.506-18.506.006-10.218 8.282-18.5 18.506-18.503 10.22.003 18.502 8.286 18.502 18.503 0 10.223-8.282 18.506-18.502 18.506z" fill="url(#paint2_linear_22_626)"/><path d="M43.682 46.497c0-.733.204-1.407.528-2.008l-4.45-7.715a.902.902 0 00-.634-.434.874.874 0 00-.733.22s.11-.134-.223.195a13.743 13.743 0 00-4.037 9.742 13.746 13.746 0 004.037 9.747c.363.36.339.299.339.299a.91.91 0 00.732.21.905.905 0 00.632-.436l.229-.397 4.193-7.26a4.216 4.216 0 01-.613-2.163z" fill="url(#paint3_linear_22_626)"/><path d="M47.915 32.72c-1.014 0-1.996.117-2.94.324-.56.122-.543.159-.543.159a.893.893 0 00-.528 1.303l4.508 7.81a4.214 4.214 0 013.095 1.968h8.877a.888.888 0 00.696-.336.871.871 0 00.177-.75s.04.024-.11-.486a13.674 13.674 0 00-3.491-5.957 13.707 13.707 0 00-9.741-4.034z" fill="url(#paint4_linear_22_626)"/><defs><linearGradient id="paint0_linear_22_626" x1="48" y1="0" x2="48" y2="100" gradientUnits="userSpaceOnUse"><stop stop-color="#D9D1BF"/><stop offset="1" stop-color="#A69B86"/></linearGradient><linearGradient id="paint1_linear_22_626" x1="52.565" y1="49.008" x2="52.565" y2="60.278" gradientUnits="userSpaceOnUse"><stop stop-color="#D9D1BF"/><stop offset="1" stop-color="#A69B86"/></linearGradient><linearGradient id="paint2_linear_22_626" x1="47.998" y1="10.37" x2="47.998" y2="82.813" gradientUnits="userSpaceOnUse"><stop stop-color="#D9D1BF"/><stop offset="1" stop-color="#A69B86"/></linearGradient><linearGradient id="paint3_linear_22_626" x1="39.214" y1="36.329" x2="39.214" y2="56.765" gradientUnits="userSpaceOnUse"><stop stop-color="#D9D1BF"/><stop offset="1" stop-color="#A69B86"/></linearGradient><linearGradient id="paint4_linear_22_626" x1="52.532" y1="32.721" x2="52.532" y2="44.284" gradientUnits="userSpaceOnUse"><stop stop-color="#D9D1BF"/><stop offset="1" stop-color="#A69B86"/></linearGradient></defs></symbol><symbol fill="none" id="sprite-user" viewBox="0 0 100 86"><title>user</title><path d="M50.758 42.242v25.433h-8.79c0 3.901 2.933 7.065 6.55 7.065H95.43c.06 0-.057-.017 0-.018v-32.48c0-1.04-.844-1.884-1.885-1.884H52.641c-1.04 0-1.883.843-1.883 1.884zm28.174 3.074c0 2.278-2.025 4.556-4.303 4.051 0 0 .252-4.05 4.303-4.05zm-7.823 5.192c1.586-.508 3.333.167 3.636 1.104.32-.928 2.082-1.568 3.656-1.024a4.582 4.582 0 011.655 1.004 4.496 4.496 0 00-2.593 4.071 4.494 4.494 0 002.806 4.164 6.874 6.874 0 01-5.646 2.927c-3.118-.032-6.644-2.39-6.817-7.058-.102-2.766 1.427-4.584 3.303-5.188z" fill="url(#paint0_linear_22_607)"/><path d="M48.738 25.548c7.052 0 12.767-5.715 12.767-12.764 0-7.05-5.715-12.766-12.767-12.766-7.047 0-12.764 5.716-12.764 12.766 0 7.048 5.717 12.764 12.764 12.764z" fill="url(#paint1_linear_22_607)"/><path d="M100 78.197H0v7.785h100v-7.785z" fill="url(#paint2_linear_22_607)"/><path d="M32.107 66.916l.21 7.824h9.558c-1.798-1.765-2.93-4.276-2.93-7.065V65.08h8.79V42.242a4.482 4.482 0 014.479-4.478H74.58c-6.974-5.854-18.204-6.275-24.396-6.275-9.06 0-25.555.893-27.055 18.416L21.002 74.74h9.287l1.818-7.824z" fill="url(#paint3_linear_22_607)"/><path d="M15.576 74.48l3.004-21.785H1.04L4.043 74.48h11.533z" fill="url(#paint4_linear_22_607)"/><path d="M17.435 45.034H2.182L1.04 50.073h17.54l-1.144-5.04z" fill="url(#paint5_linear_22_607)"/><defs><linearGradient id="paint0_linear_22_607" x1="68.709" y1="40.358" x2="68.709" y2="74.74" gradientUnits="userSpaceOnUse"><stop stop-color="#D9D1BF"/><stop offset="1" stop-color="#A69B86"/></linearGradient><linearGradient id="paint1_linear_22_607" x1="48.739" y1=".018" x2="48.739" y2="25.548" gradientUnits="userSpaceOnUse"><stop stop-color="#D9D1BF"/><stop offset="1" stop-color="#A69B86"/></linearGradient><linearGradient id="paint2_linear_22_607" x1="50" y1="78.197" x2="50" y2="85.982" gradientUnits="userSpaceOnUse"><stop stop-color="#D9D1BF"/><stop offset="1" stop-color="#A69B86"/></linearGradient><linearGradient id="paint3_linear_22_607" x1="47.791" y1="31.489" x2="47.791" y2="74.74" gradientUnits="userSpaceOnUse"><stop stop-color="#D9D1BF"/><stop offset="1" stop-color="#A69B86"/></linearGradient><linearGradient id="paint4_linear_22_607" x1="9.809" y1="52.695" x2="9.809" y2="74.48" gradientUnits="userSpaceOnUse"><stop stop-color="#D9D1BF"/><stop offset="1" stop-color="#A69B86"/></linearGradient><linearGradient id="paint5_linear_22_607" x1="9.809" y1="45.034" x2="9.809" y2="50.073" gradientUnits="userSpaceOnUse"><stop stop-color="#D9D1BF"/><stop offset="1" stop-color="#A69B86"/></linearGradient></defs></symbol></svg>