<svg width="94" height="100" viewBox="0 0 94 100" fill="none" xmlns="http://www.w3.org/2000/svg">
<path d="M50.2684 75.7603L55.5459 72.5749V99.9999H38.4541V71.1065L40.4633 70.0405L50.2684 75.7603Z" fill="url(#paint0_linear_22_615)"/>
<path d="M35.1857 99.9999H18.0954V81.9091L35.1857 72.8413V99.9999Z" fill="url(#paint1_linear_22_615)"/>
<path d="M14.8271 83.644V100H0.425975V91.2851L14.8271 83.644Z" fill="url(#paint2_linear_22_615)"/>
<path d="M75.9044 99.9999H58.8142V70.6007L75.9044 60.2817V99.9999Z" fill="url(#paint3_linear_22_615)"/>
<path d="M93.574 99.9998H79.1728V58.3076L93.574 49.6133V99.9998Z" fill="url(#paint4_linear_22_615)"/>
<path d="M52.4052 15.1395C48.2337 14.7516 45.1648 11.0539 45.5542 6.88244C45.9403 2.71389 49.6364 -0.353494 53.8095 0.0328345C57.978 0.419163 61.0468 4.11526 60.6591 8.2883C60.2728 12.4584 56.5782 15.5256 52.4052 15.1395Z" fill="url(#paint5_linear_22_615)"/>
<path d="M26.6876 60.7225L30.3103 48.7998C30.4587 49.0584 30.6087 49.317 30.7794 49.5627C32.4376 51.9471 35.0452 53.4695 37.9368 53.7361L39.2697 53.827L35.4712 63.0383C34.6654 64.3725 33.6697 65.5822 32.5142 66.6307L22.6372 75.5994C21.2441 76.8107 19.1374 76.6959 17.8816 75.3393L17.7921 75.2467C16.5409 73.8936 16.5857 71.7934 17.8894 70.4941L26.6876 60.7225Z" fill="url(#paint6_linear_22_615)"/>
<path d="M51.8195 24.0892L49.2917 25.104L48.5416 22.3399L50.1025 19.6831L53.0818 21.9364L51.8195 24.0892Z" fill="url(#paint7_linear_22_615)"/>
<path d="M52.8601 68.4768L52.7259 68.4448C50.9353 68.0011 49.8007 66.2427 50.1374 64.4329L52.3126 52.7606L37.9657 51.7647C35.907 51.621 34.0206 50.5518 32.8429 48.8569C31.6636 47.1589 31.3204 45.0204 31.9029 43.0386L32.4423 41.2112L36.9282 24.871L29.2378 25.2858L23.0906 31.2081C23.3874 31.5704 23.5359 32.0444 23.4161 32.5358L22.9134 34.5706L26.4882 35.4532C27.3339 35.6591 27.8495 36.5145 27.6404 37.3602L25.2339 47.1255C25.0234 47.9729 24.1695 48.4884 23.3251 48.2825L8.15793 44.5419C7.31047 44.3311 6.79504 43.4757 7.00403 42.6284L9.41223 32.8649C9.61965 32.0208 10.4751 31.502 11.3208 31.7079L14.8956 32.5903L15.3968 30.5587C15.6011 29.7337 16.4357 29.2294 17.2624 29.4321L17.6359 29.5247C17.7204 29.1784 17.8737 28.8432 18.1034 28.5432L24.1167 20.6581C24.7646 19.8091 25.6886 19.2108 26.7275 18.9696L36.6173 15.43C39.9638 14.2331 43.6583 14.7358 46.5755 16.7225L47.4325 28.8927L55.3099 23.3774L60.8075 27.5954L69.7046 24.3845C71.0993 23.7669 72.7288 24.3606 73.3958 25.7298L73.4884 25.918C73.8171 26.5979 73.8652 27.3782 73.6161 28.0884C73.3689 28.8016 72.8452 29.3843 72.1624 29.713L61.4382 34.8325C60.104 35.4708 58.5513 35.4645 57.2218 34.8165L51.5038 31.0136L47.5812 42.2612L57.0718 43.0927C58.6691 43.2378 60.1232 44.0884 61.0281 45.413C61.9312 46.7374 62.1947 48.3987 61.7478 49.9421L57.0304 66.0745C56.5066 67.8655 54.6697 68.922 52.8601 68.4768ZM16.9066 30.8716L16.8347 30.913L16.3335 32.9462L21.4738 34.2147L21.9605 32.244C21.0062 33.0261 19.6433 33.085 18.6521 32.319L18.5947 32.2759C18.1798 31.955 17.8892 31.5337 17.7234 31.0743L16.9066 30.8716ZM43.256 38.6868C43.2081 39.2056 43.5865 39.6587 44.1034 39.7097C44.6189 39.7544 45.0753 39.3776 45.1263 38.8606C45.1728 38.3419 44.7943 37.8856 44.2757 37.8393C43.762 37.7913 43.3038 38.1681 43.256 38.6868ZM45.7583 32.6973C45.2445 32.6495 44.7864 33.0263 44.7384 33.5432C44.6905 34.062 45.0704 34.52 45.5859 34.5663C46.1013 34.6126 46.5593 34.2358 46.6056 33.7188C46.6552 33.2016 46.2755 32.7452 45.7583 32.6973Z" fill="url(#paint8_linear_22_615)"/>
<defs>
<linearGradient id="paint0_linear_22_615" x1="47" y1="70.0405" x2="47" y2="99.9999" gradientUnits="userSpaceOnUse">
<stop stop-color="#D9D1BF"/>
<stop offset="1" stop-color="#A69B86"/>
</linearGradient>
<linearGradient id="paint1_linear_22_615" x1="26.6406" y1="72.8413" x2="26.6406" y2="99.9999" gradientUnits="userSpaceOnUse">
<stop stop-color="#D9D1BF"/>
<stop offset="1" stop-color="#A69B86"/>
</linearGradient>
<linearGradient id="paint2_linear_22_615" x1="7.62656" y1="83.644" x2="7.62656" y2="100" gradientUnits="userSpaceOnUse">
<stop stop-color="#D9D1BF"/>
<stop offset="1" stop-color="#A69B86"/>
</linearGradient>
<linearGradient id="paint3_linear_22_615" x1="67.3593" y1="60.2817" x2="67.3593" y2="99.9999" gradientUnits="userSpaceOnUse">
<stop stop-color="#D9D1BF"/>
<stop offset="1" stop-color="#A69B86"/>
</linearGradient>
<linearGradient id="paint4_linear_22_615" x1="86.3734" y1="49.6133" x2="86.3734" y2="99.9998" gradientUnits="userSpaceOnUse">
<stop stop-color="#D9D1BF"/>
<stop offset="1" stop-color="#A69B86"/>
</linearGradient>
<linearGradient id="paint5_linear_22_615" x1="53.1065" y1="0" x2="53.1065" y2="15.1723" gradientUnits="userSpaceOnUse">
<stop stop-color="#D9D1BF"/>
<stop offset="1" stop-color="#A69B86"/>
</linearGradient>
<linearGradient id="paint6_linear_22_615" x1="28.0758" y1="48.7998" x2="28.0758" y2="76.4375" gradientUnits="userSpaceOnUse">
<stop stop-color="#D9D1BF"/>
<stop offset="1" stop-color="#A69B86"/>
</linearGradient>
<linearGradient id="paint7_linear_22_615" x1="50.8117" y1="19.6831" x2="50.8117" y2="25.104" gradientUnits="userSpaceOnUse">
<stop stop-color="#D9D1BF"/>
<stop offset="1" stop-color="#A69B86"/>
</linearGradient>
<linearGradient id="paint8_linear_22_615" x1="40.3657" y1="14.7881" x2="40.3657" y2="68.5785" gradientUnits="userSpaceOnUse">
<stop stop-color="#D9D1BF"/>
<stop offset="1" stop-color="#A69B86"/>
</linearGradient>
</defs>
</svg>
