<svg width="96" height="100" viewBox="0 0 96 100" fill="none" xmlns="http://www.w3.org/2000/svg">
<path d="M84.0839 0H11.916C5.75444 0 0.755615 4.99883 0.755615 11.1604V83.3283C0.755615 89.4898 5.75444 94.4887 11.916 94.4887H14.8945L15.4011 99.2037C15.45 99.6584 15.8345 100 16.2923 100H21.7062C22.1609 100 22.5423 99.6584 22.5912 99.2037L23.1007 94.4887H72.8962L73.4089 99.2037C73.4578 99.6584 73.8392 100 74.2939 100H79.7078C80.1656 100 80.5501 99.6584 80.599 99.2037L81.1056 94.4887H84.0841C90.2488 94.4887 95.2445 89.4898 95.2445 83.3283V11.1604C95.2443 4.99883 90.2486 0 84.0839 0ZM89.339 33.9172H87.3675V60.5713H89.339V70.9961H87.3675V78.3478C87.3675 82.5471 83.9556 85.9619 79.7564 85.9619H16.2433C12.0472 85.9619 8.62925 82.5471 8.62925 78.3478V14.8377C8.62925 10.6385 12.0472 7.22051 16.2433 7.22051H79.7566C83.9558 7.22051 87.3677 10.6385 87.3677 14.8377V23.4926H89.3392V33.9172H89.339Z" fill="url(#paint0_linear_22_626)"/>
<path d="M61.0127 49.3532C60.8449 49.1335 60.5824 49.0083 60.3107 49.0083H51.308C50.664 49.872 49.7027 50.4823 48.592 50.6593L44.2707 58.1544L44.0509 58.5329C43.9105 58.771 43.8921 59.064 43.9961 59.3202C44.0998 59.5735 44.3195 59.7657 44.5851 59.839C44.5851 59.839 44.5332 59.8573 45.0826 59.9763C45.9982 60.1747 46.9412 60.2784 47.9146 60.2784C51.7293 60.2784 55.1595 58.7403 57.6558 56.244C59.1818 54.712 60.3414 52.8413 61.0189 50.7448C61.1959 50.1802 61.1714 50.1192 61.1714 50.1192C61.2416 49.8505 61.1836 49.5667 61.0127 49.3532Z" fill="url(#paint1_linear_22_626)"/>
<path d="M79.7566 10.3701H16.2433C13.7775 10.3701 11.7787 12.3721 11.7787 14.8379V78.348C11.7787 80.8139 13.7775 82.8127 16.2433 82.8127H79.7566C82.2224 82.8127 84.2183 80.8139 84.2183 78.348V70.9963H80.8095V60.5715H84.2183V33.9174H80.8095V23.4926H84.2183V14.8379C84.2183 12.3721 82.2224 10.3701 79.7566 10.3701ZM47.9146 65.0027C37.6912 65.0027 29.4148 56.7203 29.4088 46.4969C29.4148 36.2795 37.6912 27.9971 47.9146 27.9941C58.1349 27.9973 66.4174 36.2797 66.4174 46.4969C66.4174 56.7201 58.1349 65.0027 47.9146 65.0027Z" fill="url(#paint2_linear_22_626)"/>
<path d="M43.6818 46.4967C43.6818 45.7643 43.8863 45.0898 44.2098 44.4887L39.7604 36.7738C39.626 36.5449 39.3941 36.3832 39.1256 36.3404C38.8631 36.2977 38.5916 36.3771 38.3932 36.5602C38.3932 36.5602 38.5031 36.4258 38.1703 36.7555C35.6709 39.2578 34.1389 42.6881 34.1328 46.4967C34.1389 50.3113 35.6709 53.7416 38.1703 56.2439C38.5334 56.6041 38.509 56.543 38.509 56.543C38.7074 56.7139 38.9789 56.7963 39.2414 56.7535C39.5068 56.7078 39.7389 56.549 39.873 56.3172L40.102 55.9205L44.2951 48.6604C43.9168 48.0256 43.6818 47.29 43.6818 46.4967Z" fill="url(#paint3_linear_22_626)"/>
<path d="M47.9146 32.7207C46.9013 32.7207 45.9187 32.8367 44.9757 33.0441C44.4142 33.1662 44.4325 33.2029 44.4325 33.2029C44.1671 33.2762 43.9534 33.4684 43.8497 33.7248C43.746 33.9781 43.7673 34.265 43.9046 34.5061L48.412 42.3154C49.7212 42.4711 50.8443 43.2127 51.5066 44.2838H60.3841C60.6587 44.2838 60.912 44.1586 61.08 43.948C61.254 43.7375 61.3181 43.4566 61.257 43.1973C61.257 43.1973 61.2966 43.2217 61.147 42.7121C60.5031 40.4293 59.2915 38.3939 57.6558 36.7551C55.1593 34.2588 51.7292 32.7207 47.9146 32.7207Z" fill="url(#paint4_linear_22_626)"/>
<defs>
<linearGradient id="paint0_linear_22_626" x1="48" y1="0" x2="48" y2="100" gradientUnits="userSpaceOnUse">
<stop stop-color="#D9D1BF"/>
<stop offset="1" stop-color="#A69B86"/>
</linearGradient>
<linearGradient id="paint1_linear_22_626" x1="52.5652" y1="49.0083" x2="52.5652" y2="60.2784" gradientUnits="userSpaceOnUse">
<stop stop-color="#D9D1BF"/>
<stop offset="1" stop-color="#A69B86"/>
</linearGradient>
<linearGradient id="paint2_linear_22_626" x1="47.9985" y1="10.3701" x2="47.9985" y2="82.8127" gradientUnits="userSpaceOnUse">
<stop stop-color="#D9D1BF"/>
<stop offset="1" stop-color="#A69B86"/>
</linearGradient>
<linearGradient id="paint3_linear_22_626" x1="39.214" y1="36.3291" x2="39.214" y2="56.7647" gradientUnits="userSpaceOnUse">
<stop stop-color="#D9D1BF"/>
<stop offset="1" stop-color="#A69B86"/>
</linearGradient>
<linearGradient id="paint4_linear_22_626" x1="52.5321" y1="32.7207" x2="52.5321" y2="44.2838" gradientUnits="userSpaceOnUse">
<stop stop-color="#D9D1BF"/>
<stop offset="1" stop-color="#A69B86"/>
</linearGradient>
</defs>
</svg>
